<?xml version="1.0" encoding="utf-8"?>
<!-- Generator: Adobe Illustrator 24.0.0, SVG Export Plug-In . SVG Version: 6.00 Build 0)  -->
<svg version="1.1" id="Lager_1" xmlns="http://www.w3.org/2000/svg" xmlns:xlink="http://www.w3.org/1999/xlink" x="0px" y="0px"
	 viewBox="0 0 450 450" style="enable-background:new 0 0 450 450;" xml:space="preserve">
<style type="text/css">
	.st0{fill:none;stroke:#E31013;stroke-miterlimit:10;}
</style>
<line class="st0" x1="0" y1="0" x2="0" y2="450"/>
<line class="st0" x1="56.25" y1="0" x2="56.25" y2="450"/>
<line class="st0" x1="112.5" y1="0" x2="112.5" y2="450"/>
<line class="st0" x1="168.75" y1="0" x2="168.75" y2="450"/>
<line class="st0" x1="225" y1="0" x2="225" y2="450"/>
<line class="st0" x1="281.25" y1="0" x2="281.25" y2="450"/>
<line class="st0" x1="337.5" y1="0" x2="337.5" y2="450"/>
<line class="st0" x1="393.75" y1="0" x2="393.75" y2="450"/>
<line class="st0" x1="450" y1="56.25" x2="0" y2="56.25"/>
<line class="st0" x1="450" y1="112.5" x2="0" y2="112.5"/>
<line class="st0" x1="450" y1="168.75" x2="0" y2="168.75"/>
<line class="st0" x1="450" y1="225" x2="0" y2="225"/>
<line class="st0" x1="450" y1="281.25" x2="0" y2="281.25"/>
<line class="st0" x1="450" y1="337.5" x2="0" y2="337.5"/>
<line class="st0" x1="450" y1="393.75" x2="0" y2="393.75"/>
<line class="st0" x1="450" y1="450" x2="0" y2="450"/>
</svg>
